<svg xmlns="http://www.w3.org/2000/svg" viewBox="0 0 1200 400" fill="none"><defs><linearGradient id="g" x1="180" y1="40" x2="1040" y2="360" gradientUnits="userSpaceOnUse"><stop stop-color="#6366F1" stop-opacity="0.55" /><stop offset="1" stop-color="#EC4899" stop-opacity="0.35" /></linearGradient></defs><circle cx="900" cy="190" r="230" fill="url(#g)" opacity="0.14" /><circle cx="780" cy="270" r="170" fill="url(#g)" opacity="0.10" /><path d="M220 320 C 380 240 480 260 620 200 S 910 120 980 90" stroke="url(#g)" stroke-width="8" stroke-linecap="round" opacity="0.40" /><g opacity="0.95"><circle cx="220" cy="320" r="11" fill="#FFFFFF" stroke="#6366F1" stroke-width="3" /><circle cx="420" cy="245" r="11" fill="#FFFFFF" stroke="#6366F1" stroke-width="3" /><circle cx="620" cy="200" r="11" fill="#FFFFFF" stroke="#6366F1" stroke-width="3" /><circle cx="820" cy="145" r="11" fill="#FFFFFF" stroke="#6366F1" stroke-width="3" /><circle cx="980" cy="90" r="11" fill="#FFFFFF" stroke="#6366F1" stroke-width="3" /></g><g stroke="url(#g)" stroke-width="6" stroke-linecap="round" stroke-linejoin="round" opacity="0.82"><path d="M860 135 C 900 120 930 120 950 135 C 970 120 1000 120 1040 135 V280 C1000 260 970 260 950 280 C930 260 900 260 860 280 Z" /><path d="M950 135 V280" /><path d="M950 90 L1020 110 L950 130 L880 110 Z" /><path d="M1020 110 V140" /></g><g opacity="0.18" fill="#111827"><circle cx="560" cy="110" r="2" /><circle cx="590" cy="95" r="2" /><circle cx="620" cy="80" r="2" /><circle cx="650" cy="110" r="2" /><circle cx="680" cy="95" r="2" /><circle cx="710" cy="80" r="2" /></g></svg>